<svg xmlns="http://www.w3.org/2000/svg" viewBox="0 0 410 404">
  <defs>
    <linearGradient id="a" x1="6.54%" x2="93.46%" y1="21.25%" y2="78.75%">
      <stop stop-color="#41D1FF"/>
      <stop offset="1" stop-color="#BD34FE"/>
    </linearGradient>
    <linearGradient id="b" x1="19.35%" x2="78.49%" y1="20.35%" y2="82.2%">
      <stop stop-color="#FFEA83"/>
      <stop offset="0.083" stop-color="#FFDD35"/>
      <stop offset="1" stop-color="#FFA800"/>
    </linearGradient>
  </defs>
  <path fill="url(#a)" d="M399.641 59.525 215.643 388.545c-3.88 6.812-13.72 6.83-17.622.032L10.74 59.556c-4.242-7.227 1.171-16.263 9.488-15.353l179.322 19.684a10 10 0 0 0 11.137-8.334l11.52-74.85c1.397-9.075 14.559-9.106 16.006-.043l13.126 82.933a10 10 0 0 0 11.44 8.3l126.45-13.463c8.363-.891 13.793 8.152 9.536 15.38Z"/>
  <path fill="url(#b)" d="M292.965 65.856 183.02 325.122c-1.918 4.454-8.303 3.265-8.64-1.463l-5.34-75.455a10 10 0 0 1 1.17-5.457L257.34 48.713c2.561-4.565 9.255-3.233 9.616 1.888l2.39 33.718a10 10 0 0 0 3.31 6.537l18.73 16.523c3.893 3.433 9.849-.279 8.298-5.487L293.22 67.18a10 10 0 0 0-.255-1.324Z"/>
</svg>
